<svg width="419" height="155" viewBox="0 0 419 155" fill="none" xmlns="http://www.w3.org/2000/svg">
<path d="M0 154L43 80L86.5 154H0Z" fill="#6A9E3C"/>
<path d="M77.5 20L47 73.5L93.5 154.5H155.5L77.5 20Z" fill="#1E365C"/>
<path d="M164.5 100L191.3 30H200.2L226.8 100H218.3L201.2 54.6C200.733 53.3333 200.2 51.8667 199.6 50.2C199.067 48.4667 198.467 46.7 197.8 44.9C197.2 43.0333 196.6 41.2333 196 39.5C195.467 37.7667 194.967 36.2333 194.5 34.9H196.5C195.967 36.5667 195.4 38.2667 194.8 40C194.267 41.6667 193.7 43.3667 193.1 45.1C192.5 46.7667 191.9 48.4333 191.3 50.1C190.7 51.7667 190.1 53.4333 189.5 55.1L172.5 100H164.5ZM175.9 80.7L178.8 73.1H211.9L215.1 80.7H175.9ZM253.685 101C249.218 101 245.218 100.167 241.685 98.5C238.152 96.8333 235.352 94.6333 233.285 91.9L238.585 87.3C240.518 89.6333 242.785 91.4 245.385 92.6C248.052 93.8 251.018 94.4 254.285 94.4C255.952 94.4 257.452 94.2333 258.785 93.9C260.118 93.5 261.285 92.9333 262.285 92.2C263.285 91.4667 264.052 90.6 264.585 89.6C265.118 88.6 265.385 87.5 265.385 86.3C265.385 84.1 264.418 82.2667 262.485 80.8C261.618 80.2 260.385 79.6 258.785 79C257.185 78.3333 255.252 77.7 252.985 77.1C249.252 76.0333 246.152 74.9667 243.685 73.9C241.218 72.7667 239.285 71.4667 237.885 70C236.885 68.8 236.118 67.5 235.585 66.1C235.118 64.7 234.885 63.1667 234.885 61.5C234.885 59.3667 235.318 57.4 236.185 55.6C237.118 53.8 238.385 52.2333 239.985 50.9C241.652 49.5 243.585 48.4667 245.785 47.8C248.052 47.0667 250.485 46.7 253.085 46.7C255.552 46.7 257.985 47.0333 260.385 47.7C262.785 48.3667 265.018 49.3333 267.085 50.6C269.152 51.8667 270.918 53.3667 272.385 55.1L267.785 60.1C266.518 58.7667 265.118 57.5667 263.585 56.5C262.052 55.4333 260.418 54.6 258.685 54C257.018 53.4 255.285 53.1 253.485 53.1C251.885 53.1 250.385 53.3 248.985 53.7C247.652 54.1 246.485 54.6667 245.485 55.4C244.552 56.0667 243.818 56.9 243.285 57.9C242.818 58.9 242.585 60 242.585 61.2C242.585 62.2 242.785 63.1 243.185 63.9C243.585 64.7 244.152 65.4 244.885 66C245.818 66.7333 247.118 67.4333 248.785 68.1C250.518 68.7 252.652 69.3333 255.185 70C258.118 70.8 260.585 71.6333 262.585 72.5C264.652 73.3 266.352 74.2667 267.685 75.4C269.485 76.7333 270.752 78.2667 271.485 80C272.285 81.7333 272.685 83.7 272.685 85.9C272.685 88.8333 271.852 91.4333 270.185 93.7C268.585 95.9667 266.352 97.7667 263.485 99.1C260.618 100.367 257.352 101 253.685 101ZM301.537 101C297.07 101 293.07 100.167 289.537 98.5C286.003 96.8333 283.203 94.6333 281.137 91.9L286.437 87.3C288.37 89.6333 290.637 91.4 293.237 92.6C295.903 93.8 298.87 94.4 302.137 94.4C303.803 94.4 305.303 94.2333 306.637 93.9C307.97 93.5 309.137 92.9333 310.137 92.2C311.137 91.4667 311.903 90.6 312.437 89.6C312.97 88.6 313.237 87.5 313.237 86.3C313.237 84.1 312.27 82.2667 310.337 80.8C309.47 80.2 308.237 79.6 306.637 79C305.037 78.3333 303.103 77.7 300.837 77.1C297.103 76.0333 294.003 74.9667 291.537 73.9C289.07 72.7667 287.137 71.4667 285.737 70C284.737 68.8 283.97 67.5 283.437 66.1C282.97 64.7 282.737 63.1667 282.737 61.5C282.737 59.3667 283.17 57.4 284.037 55.6C284.97 53.8 286.237 52.2333 287.837 50.9C289.503 49.5 291.437 48.4667 293.637 47.8C295.903 47.0667 298.337 46.7 300.937 46.7C303.403 46.7 305.837 47.0333 308.237 47.7C310.637 48.3667 312.87 49.3333 314.937 50.6C317.003 51.8667 318.77 53.3667 320.237 55.1L315.637 60.1C314.37 58.7667 312.97 57.5667 311.437 56.5C309.903 55.4333 308.27 54.6 306.537 54C304.87 53.4 303.137 53.1 301.337 53.1C299.737 53.1 298.237 53.3 296.837 53.7C295.503 54.1 294.337 54.6667 293.337 55.4C292.403 56.0667 291.67 56.9 291.137 57.9C290.67 58.9 290.437 60 290.437 61.2C290.437 62.2 290.637 63.1 291.037 63.9C291.437 64.7 292.003 65.4 292.737 66C293.67 66.7333 294.97 67.4333 296.637 68.1C298.37 68.7 300.503 69.3333 303.037 70C305.97 70.8 308.437 71.6333 310.437 72.5C312.503 73.3 314.203 74.2667 315.537 75.4C317.337 76.7333 318.603 78.2667 319.337 80C320.137 81.7333 320.537 83.7 320.537 85.9C320.537 88.8333 319.703 91.4333 318.037 93.7C316.437 95.9667 314.203 97.7667 311.337 99.1C308.47 100.367 305.203 101 301.537 101ZM355.288 101C350.088 101 345.455 99.8667 341.388 97.6C337.388 95.3333 334.255 92.1667 331.988 88.1C329.722 84.0333 328.588 79.3667 328.588 74.1C328.588 70.0333 329.222 66.3667 330.488 63.1C331.755 59.7667 333.522 56.8667 335.788 54.4C338.122 51.9333 340.888 50.0333 344.088 48.7C347.288 47.3 350.755 46.6 354.488 46.6C358.022 46.6 361.222 47.2333 364.088 48.5C367.022 49.7667 369.522 51.5333 371.588 53.8C373.722 56 375.322 58.6333 376.388 61.7C377.455 64.7667 377.922 68.1333 377.788 71.8L377.688 75.3H334.188L333.088 69H371.988L370.188 70.7V68.3C370.055 65.9 369.355 63.6 368.088 61.4C366.822 59.1333 365.022 57.3 362.688 55.9C360.422 54.5 357.688 53.8 354.488 53.8C350.755 53.8 347.522 54.5667 344.788 56.1C342.055 57.5667 339.955 59.7667 338.488 62.7C337.022 65.6333 336.288 69.2667 336.288 73.6C336.288 77.7333 337.088 81.3333 338.688 84.4C340.288 87.4 342.555 89.7333 345.488 91.4C348.488 93.0667 352.088 93.9 356.288 93.9C358.755 93.9 361.188 93.5 363.588 92.7C366.055 91.8333 368.755 90.1667 371.688 87.7L375.588 93.1C374.055 94.6333 372.222 96 370.088 97.2C367.955 98.3333 365.622 99.2667 363.088 100C360.555 100.667 357.955 101 355.288 101ZM395.641 100V34.1H403.141V100H395.641ZM383.841 55V47.8H416.341V55H383.841Z" fill="#1E365C"/>
<path d="M165.76 145V117H170.96V145H165.76ZM168.16 133.52V128.8H182.6V133.52H168.16ZM168.16 121.8V117H184.32V121.8H168.16ZM206.176 145V123.92H211.096V145H206.176ZM208.576 119.44C207.589 119.44 206.816 119.2 206.256 118.72C205.723 118.213 205.456 117.507 205.456 116.6C205.456 115.747 205.736 115.053 206.296 114.52C206.856 113.987 207.616 113.72 208.576 113.72C209.589 113.72 210.363 113.973 210.896 114.48C211.456 114.96 211.736 115.667 211.736 116.6C211.736 117.427 211.456 118.107 210.896 118.64C210.336 119.173 209.563 119.44 208.576 119.44ZM233.735 145V123.92H238.535L238.615 128.24L237.695 128.72C237.961 127.76 238.481 126.893 239.255 126.12C240.028 125.32 240.948 124.68 242.015 124.2C243.081 123.72 244.175 123.48 245.295 123.48C246.895 123.48 248.228 123.8 249.295 124.44C250.388 125.08 251.201 126.04 251.735 127.32C252.295 128.6 252.575 130.2 252.575 132.12V145H247.655V132.48C247.655 131.413 247.508 130.533 247.215 129.84C246.921 129.12 246.468 128.6 245.855 128.28C245.241 127.933 244.495 127.773 243.615 127.8C242.895 127.8 242.228 127.92 241.615 128.16C241.028 128.373 240.508 128.693 240.055 129.12C239.628 129.52 239.281 129.987 239.015 130.52C238.775 131.053 238.655 131.64 238.655 132.28V145H236.215C235.735 145 235.281 145 234.855 145C234.455 145 234.081 145 233.735 145ZM282.47 145.4C280.736 145.4 279.163 144.92 277.75 143.96C276.336 143 275.203 141.693 274.35 140.04C273.496 138.387 273.07 136.507 273.07 134.4C273.07 132.293 273.496 130.413 274.35 128.76C275.203 127.107 276.363 125.813 277.83 124.88C279.296 123.947 280.95 123.48 282.79 123.48C283.856 123.48 284.83 123.64 285.71 123.96C286.59 124.253 287.363 124.68 288.03 125.24C288.696 125.8 289.243 126.44 289.67 127.16C290.123 127.88 290.43 128.653 290.59 129.48L289.51 129.2V123.92H294.47V145H289.47V139.96L290.63 139.76C290.443 140.48 290.096 141.187 289.59 141.88C289.11 142.547 288.496 143.147 287.75 143.68C287.03 144.187 286.216 144.6 285.31 144.92C284.43 145.24 283.483 145.4 282.47 145.4ZM283.83 141.04C284.976 141.04 285.99 140.76 286.87 140.2C287.75 139.64 288.43 138.867 288.91 137.88C289.416 136.867 289.67 135.707 289.67 134.4C289.67 133.12 289.416 131.987 288.91 131C288.43 130.013 287.75 129.24 286.87 128.68C285.99 128.12 284.976 127.84 283.83 127.84C282.683 127.84 281.67 128.12 280.79 128.68C279.936 129.24 279.27 130.013 278.79 131C278.31 131.987 278.07 133.12 278.07 134.4C278.07 135.707 278.31 136.867 278.79 137.88C279.27 138.867 279.936 139.64 280.79 140.2C281.67 140.76 282.683 141.04 283.83 141.04ZM316.574 145V123.92H321.374L321.454 128.24L320.534 128.72C320.8 127.76 321.32 126.893 322.094 126.12C322.867 125.32 323.787 124.68 324.854 124.2C325.92 123.72 327.014 123.48 328.134 123.48C329.734 123.48 331.067 123.8 332.134 124.44C333.227 125.08 334.04 126.04 334.574 127.32C335.134 128.6 335.414 130.2 335.414 132.12V145H330.494V132.48C330.494 131.413 330.347 130.533 330.054 129.84C329.76 129.12 329.307 128.6 328.694 128.28C328.08 127.933 327.334 127.773 326.454 127.8C325.734 127.8 325.067 127.92 324.454 128.16C323.867 128.373 323.347 128.693 322.894 129.12C322.467 129.52 322.12 129.987 321.854 130.52C321.614 131.053 321.494 131.64 321.494 132.28V145H319.054C318.574 145 318.12 145 317.694 145C317.294 145 316.92 145 316.574 145ZM366.389 145.4C364.415 145.4 362.642 144.92 361.069 143.96C359.495 143 358.255 141.693 357.349 140.04C356.442 138.387 355.989 136.52 355.989 134.44C355.989 132.36 356.442 130.493 357.349 128.84C358.255 127.187 359.495 125.88 361.069 124.92C362.642 123.96 364.415 123.48 366.389 123.48C368.282 123.48 370.002 123.84 371.549 124.56C373.095 125.28 374.295 126.28 375.149 127.56L372.429 130.84C372.029 130.28 371.522 129.773 370.909 129.32C370.295 128.867 369.642 128.507 368.949 128.24C368.255 127.973 367.562 127.84 366.869 127.84C365.695 127.84 364.642 128.133 363.709 128.72C362.802 129.28 362.082 130.067 361.549 131.08C361.015 132.067 360.749 133.187 360.749 134.44C360.749 135.693 361.015 136.813 361.549 137.8C362.109 138.787 362.855 139.573 363.789 140.16C364.722 140.747 365.762 141.04 366.909 141.04C367.602 141.04 368.269 140.933 368.909 140.72C369.575 140.48 370.202 140.147 370.789 139.72C371.375 139.293 371.922 138.76 372.429 138.12L375.149 141.44C374.242 142.613 372.989 143.573 371.389 144.32C369.815 145.04 368.149 145.4 366.389 145.4ZM405.191 145.4C402.978 145.4 401.018 144.933 399.311 144C397.631 143.067 396.311 141.8 395.351 140.2C394.418 138.573 393.951 136.72 393.951 134.64C393.951 132.987 394.218 131.48 394.751 130.12C395.285 128.76 396.018 127.587 396.951 126.6C397.911 125.587 399.045 124.813 400.351 124.28C401.685 123.72 403.138 123.44 404.711 123.44C406.098 123.44 407.391 123.707 408.591 124.24C409.791 124.773 410.831 125.507 411.711 126.44C412.591 127.347 413.258 128.44 413.711 129.72C414.191 130.973 414.418 132.347 414.391 133.84L414.351 135.56H397.271L396.351 132.2H410.231L409.591 132.88V132C409.511 131.173 409.245 130.453 408.791 129.84C408.338 129.2 407.751 128.707 407.031 128.36C406.338 127.987 405.565 127.8 404.711 127.8C403.405 127.8 402.298 128.053 401.391 128.56C400.511 129.067 399.845 129.8 399.391 130.76C398.938 131.693 398.711 132.867 398.711 134.28C398.711 135.64 398.991 136.827 399.551 137.84C400.138 138.853 400.951 139.64 401.991 140.2C403.058 140.733 404.298 141 405.711 141C406.698 141 407.605 140.84 408.431 140.52C409.258 140.2 410.151 139.627 411.111 138.8L413.551 142.2C412.831 142.867 412.005 143.44 411.071 143.92C410.165 144.373 409.205 144.733 408.191 145C407.178 145.267 406.178 145.4 405.191 145.4Z" fill="#6A9E3C"/>
</svg>
